# xmcd
#
# Track frame offsets:
# 150
# 13169
# 24340
# 38610
# 52778
# 65419
# 80036
# 93479
# 107353
# 120220
# 136421
# 149001
# 162052
# 176205
# 190786
# 204153
# 219020
# 230158
# 243212
# 257331
# 269627
# 284525
# 297592
# 312212
#
# Disc length: 4349 seconds
#
#
# Revision: 0
# Processed by: cddbd v1.5.2PL0 Copyright (c) Steve Scherf et al.
# Submitted via: FreeRIP 2.95 
#
DISCID=5110fb18
DTITLE=Cláudio Tedesco - Serenata no Velho Mundo
DYEAR=1900
DGENRE=pop
TTITLE0=Cururú Amado
TTITLE1=Curitibana
TTITLE2=Tá Danado
TTITLE3=Vanerão da Madrugada
TTITLE4=Buchada de Bode
TTITLE5=Balanceado da Roseira
TTITLE6=Baile das Coroas
TTITLE7=Contra-passo Nordestino
TTITLE8=Fim de Baile
TTITLE9=Assum Preto
TTITLE10=Dançando no Galpão
TTITLE11=Pagode da Calcinha
TTITLE12=Princesa do Acordeon
TTITLE13=Liechtensteiner Polka
TTITLE14=Florianópolis
TTITLE15=Meu Coração Não Quer
TTITLE16=Saúde, Dinheiro e Amor
TTITLE17=Marly
TTITLE18=O Velhinho do Acordeon
TTITLE19=Iracema
TTITLE20=Mar Negro
TTITLE21=Teu Olhar
TTITLE22=Kalú
TTITLE23=Parana
EXTD=
EXTT0=
EXTT1=
EXTT2=
EXTT3=
EXTT4=
EXTT5=
EXTT6=
EXTT7=
EXTT8=
EXTT9=
EXTT10=
EXTT11=
EXTT12=
EXTT13=
EXTT14=
EXTT15=
EXTT16=
EXTT17=
EXTT18=
EXTT19=
EXTT20=
EXTT21=
EXTT22=
EXTT23=
PLAYORDER=
